# AST/ASF file generated using VICON BodyLanguage
# -----------------------------------------------
:version 1.10
:name VICON
:units
  mass 1.0
  length 0.45
  angle deg
:documentation
   .ast/.asf automatically generated from VICON data using
   VICON BodyBuilder and BodyLanguage model FoxedUp or BRILLIANT.MOD
:root
   order TX TY TZ RX RY RZ
   axis XYZ
   position 0 0 0  
   orientation 0 0 0 
:bonedata
  begin
     id 1 
     name lhipjoint
     direction 0.623529 -0.717805 0.309788 
     length 2.23224 
     axis 0 0 0  XYZ
  end
  begin
     id 2 
     name lfemur
     direction 0.34202 -0.939693 0  
     length 7.11402  
     axis 0 0 20  XYZ
    dof rx ry rz
    limits (-160.0 20.0)
           (-70.0 70.0)
           (-60.0 70.0)
  end
  begin
     id 3 
     name ltibia
     direction 0.34202 -0.939693 0   
     length 6.78496   
     axis 0 0 20   XYZ
    dof rx
    limits (-10.0 170.0)
  end
  begin
     id 4 
     name lfoot
     direction 0.125078 -0.343648 0.930732   
     length 1.84054   
     axis -90 7.62852e-016 20   XYZ
    dof rx rz
    limits (-45.0 90.0)
           (-70.0 20.0)
  end
  begin
     id 5 
     name ltoes
     direction 1.53565e-011 -4.21893e-011 1   
     length 0.916474   
     axis -90 7.62852e-016 20   XYZ
    dof rx
    limits (-90.0 20.0)
  end
  begin
     id 6 
     name rhipjoint
     direction -0.564688 -0.757748 0.327026   
     length 2.11457  
     axis 0 0 0  XYZ 
  end
  begin
     id 7 
     name rfemur
     direction -0.34202 -0.939693 0   
     length 7.14609   
     axis 0 0 -20   XYZ
    dof rx ry rz
    limits (-160.0 20.0)
           (-70.0 70.0)
           (-70.0 60.0)
  end
  begin
     id 8 
     name rtibia
     direction -0.34202 -0.939693 0   
     length 6.78101   
     axis 0 0 -20   XYZ
    dof rx
    limits (-10.0 170.0)
 end
 begin
     id 9 
     name rfoot
     direction -0.0992671 -0.272734 0.956955   
     length 1.96168  
     axis -90 -7.62852e-016 -20   XYZ
    dof rx rz
    limits (-45.0 90.0)
           (-20.0 70.0)
  end
  begin
     id 10 
     name rtoes
     direction -1.5356e-011 -4.21891e-011 1   
     length 0.982933   
     axis -90 -7.62852e-016 -20   XYZ
    dof rx
    limits (-90.0 20.0)
  end
  begin
     id 11 
     name lowerback
     direction -0.00596953 0.998668 0.0512524   
     length 1.87557   
     axis 0 0 0   XYZ
    dof rx ry rz
    limits (-20.0 45.0)
           (-30.0 30.0)
           (-30.0 30.0)
  end
  begin
     id 12 
     name upperback
     direction 0.00584879 0.999652 0.0257308   
     length 1.87883   
     axis 0 0 0   XYZ
    dof rx ry rz
    limits (-20.0 45.0)
           (-30.0 30.0)
           (-30.0 30.0)
  end
  begin
     id 13 
     name thorax
     direction 0.010104 0.999947 0.00178881   
     length 1.87779   
     axis 0 0 0   XYZ
    dof rx ry rz
    limits (-20.0 45.0)
           (-30.0 30.0)
           (-30.0 30.0)
  end
  begin
     id 14 
     name lowerneck
     direction 0.0120771 0.995934 -0.0892773   
     length 1.40897   
     axis 0 0 0   XYZ
    dof rx ry rz
    limits (-20.0 45.0)
           (-30.0 30.0)
           (-30.0 30.0)
  end
  begin
     id 15 
     name upperneck
     direction -0.030568 0.999465 -0.0116366   
     length 1.38661   
     axis 0 0 0   XYZ
    dof rx ry rz
    limits (-20.0 45.0)
           (-30.0 30.0)
           (-30.0 30.0)
  end
  begin
     id 16
     name head
     direction -0.0170715 0.999854 -0.00104426  
     length 1.47052  
     axis 0 0 0   XYZ
    dof rx ry rz
    limits (-20.0 45.0)
           (-30.0 30.0)
           (-30.0 30.0)
  end
  begin
     id 17 
     name lclavicle
     direction 0.977763 0.206143 0.038532  
     length 3.02424  
     axis 0 0 0   XYZ
    dof ry rz
    limits (-20.0 10.0)
           (0.0 20.0)
  end
  begin
     id 18 
     name lhumerus
     direction 1 -4.48965e-011 -2.62654e-027   
     length 4.68382   
     axis 180 -30 -90   XYZ
    dof rx ry rz
    limits (-60.0 90.0)
           (-90.0 90.0)
           (-90.0 90.0)
  end
  begin
     id 19
     name lradius
     direction 1 -4.48973e-011 -1.54954e-027   
     length 2.98124   
     axis 180 -30 -90   XYZ
    dof rx
    limits (-10.0 170.0)
  end
  begin
     id 20
     name lwrist
     direction 1 -4.48959e-011 7.20928e-028   
     length 1.49062   
     axis -5.52449e-016 90 90   XYZ
    dof ry
    limits (-180.0 0.0)
 end
  begin
     id 21 
     name lhand
     direction 1 -4.48971e-011 1.44186e-027   
     length 0.707595   
     axis -9.20027e-016 90 90   XYZ
    dof rx rz
    limits (-90.0 90.0)
           (-45.0 45.0)
  end
  begin
     id 22 
     name lfingers
     direction 1 -4.48985e-011 2.88371e-027   
     length 0.570481   
     axis -1.84005e-015 90 90   XYZ
    dof rx
    limits (0.0 90.0)
  end
  begin
     id 23
     name lthumb
     direction 0.707107 -6.34929e-011 0.707107   
     length 0.819101   
     axis -90 45 2.85299e-015   XYZ
    dof rx rz
    limits (-45.0 45.0)
           (-45.0 45.0)
  end
  begin
     id 24 
     name rclavicle
     direction -0.958661 0.284411 -0.00895327   
     length 3.11921  
     axis 0 0 0   XYZ 
    dof ry rz
    limits (-10.0 20.0)
           (-20.0 0.0)
  end
  begin
     id 25 
     name rhumerus
     direction -1 -4.48963e-011 -4.22193e-027  
     length 4.75876   
     axis 180 30 90   XYZ
    dof rx ry rz
    limits (-90.0 60.0)
           (-90.0 90.0)
           (-90.0 90.0)
  end
  begin
     id 26 
     name rradius
     direction -1 -4.48968e-011 -1.07616e-027   
     length 2.93293   
     axis 180 30 90   XYZ
    dof rx
    limits (-10.0 170.0)
  end
  begin
     id 27 
     name rwrist
     direction -1 -4.48965e-011 7.20928e-028   
     length 1.46647   
     axis -5.52449e-016 -90 -90   XYZ
    dof ry
    limits (-180.0 0.0)
  end
  begin
     id 28
     name rhand
     direction -1 -4.48971e-011 1.44186e-027   
     length 0.831748   
     axis -9.20027e-016 -90 -90   XYZ
    dof rx rz
    limits (-90.0 90.0)
           (-45.0 45.0)
  end
  begin
     id 29
     name rfingers
     direction -1 -4.48961e-011 2.88371e-027   
     length 0.670577   
     axis -1.84005e-015 -90 -90   XYZ
    dof rx
    limits (0.0 90.0)
  end
  begin
     id 30
     name rthumb
     direction -0.707107 -6.34929e-011 0.707107   
     length 0.962818   
     axis -90 -45 -2.85299e-015   XYZ
    dof rx rz
    limits (-45.0 45.0)
           (-45.0 45.0)
  end
:hierarchy
  begin
    root lhipjoint rhipjoint lowerback
    lhipjoint lfemur
    lfemur ltibia
    ltibia lfoot
    lfoot ltoes
    rhipjoint rfemur
    rfemur rtibia
    rtibia rfoot
    rfoot rtoes
    lowerback upperback
    upperback thorax
    thorax lowerneck lclavicle rclavicle
    lowerneck upperneck
    upperneck head
    lclavicle lhumerus
    lhumerus lradius
    lradius lwrist
    lwrist lhand lthumb
    lhand lfingers
    rclavicle rhumerus
    rhumerus rradius
    rradius rwrist
    rwrist rhand rthumb
    rhand rfingers
  end

#!OML:ASF E:\id_vita\Project 1\Capture day 1\Session 1\Female.ASF
:FULLY-SPECIFIED
:DEGREES
421
root 39.6697 16.3171 -1.21088 -93.5257 -87.9301 111.325
lowerback -15.9178 0.33118 -5.21494
upperback -6.63573 0.844712 -0.54767
thorax 1.77523 0.338421 2.50916
lowerneck 6.26722 -0.111972 -4.27704
upperneck -3.70563 -0.268109 4.83967
head -2.27595 -0.213783 2.33075
rclavicle -5.57218e-015 -1.98785e-015
rhumerus -41.1835 -25.4432 -74.8487
rradius 20.8048
rwrist 20.8744
rhand -15.5205 11.1198
rfingers 7.12502
rthumb 10.6627 -18.5896
lclavicle -5.57218e-015 -1.98785e-015
lhumerus -112.133 48.0227 -27.1006
lradius 12.3741
lwrist -98.7042
lhand -3.19115 25.0974
lfingers 7.12502
lthumb 22.5305 53.8029
rfemur -2.65665 -1.49695 18.639
rtibia 35.7151
rfoot 13.107 3.81316
rtoes -7.47905
lfemur -40.2937 -11.6466 -19.8918
ltibia 35.4026
lfoot -16.1192 3.20365
ltoes -0.121896
422
root 39.5257 16.3326 -1.18381 -86.8857 -87.6577 104.553
lowerback -15.8859 0.170371 -5.61155
upperback -6.41901 0.710495 -0.493897
thorax 1.989 0.275154 2.76818
lowerneck 5.18555 -0.12108 -4.2479
upperneck -3.1558 -0.262537 4.67316
head -1.89559 -0.194422 2.24943
rclavicle -1.05107e-014 2.09718e-014
rhumerus -40.9047 -25.8924 -74.4291
rradius 20.6196
rwrist 21.2278
rhand -15.407 11.3348
rfingers 7.12502
rthumb 10.7722 -18.369
lclavicle -1.05107e-014 2.09718e-014
lhumerus -111.753 49.2279 -25.9305
lradius 12.2869
lwrist -98.3753
lhand -3.26291 24.9964
lfingers 7.12502
lthumb 22.4616 53.7102
rfemur -3.78678 -2.17769 18.1552
rtibia 38.3092
rfoot 15.0047 4.20882
rtoes -8.4735
lfemur -39.3732 -11.9677 -20.4427
ltibia 35.0433
lfoot -16.4058 3.13622
ltoes 0.330262
423
root 39.386 16.3522 -1.15973 -95.7147 -87.4738 113.525
lowerback -16.603 0.303013 -5.51788
upperback -6.27219 0.925211 -0.627774
thorax 2.51006 0.36045 2.62156
lowerneck 5.48674 -0.127142 -3.99589
upperneck -3.35278 -0.261736 4.57914
head -2.0128 -0.198591 2.17788
rclavicle -8.69062e-015 5.46658e-015
rhumerus -40.9412 -26.2121 -74.3805
rradius 20.581
rwrist 21.0959
rhand -15.3896 11.473
rfingers 7.12502
rthumb 10.789 -18.2299
lclavicle -8.69062e-015 5.46658e-015
lhumerus -109.754 50.5896 -23.217
lradius 12.2121
lwrist -97.2123
lhand -3.20653 24.971
lfingers 7.12502
lthumb 22.5157 53.6783
rfemur -5.43379 -2.35702 17.7897
rtibia 40.9771
rfoot 17.2042 4.82859
rtoes -8.75087
lfemur -38.6952 -11.7727 -20.7663
ltibia 34.6199
lfoot -16.6062 3.05893
ltoes 1.3336
424
root 39.2469 16.3774 -1.13825 -98.1753 -87.2877 115.901
lowerback -16.2751 0.350297 -5.54516
upperback -6.567 0.943743 -0.682114
thorax 2.02174 0.381019 2.57582
lowerneck 5.76544 -0.0828338 -3.9502
upperneck -2.97785 -0.221736 4.50644
head -1.94165 -0.180243 2.14216
rclavicle -1.73315e-014 1.64991e-014
rhumerus -41.6483 -26.0732 -74.0851
rradius 20.607
rwrist 20.7486
rhand -15.4626 11.5125
rfingers 7.12502
rthumb 10.7185 -18.1941
lclavicle -1.73315e-014 1.64991e-014
lhumerus -104.726 51.6194 -16.7042
lradius 12.1371
lwrist -94.0352
lhand -3.17763 25.5363
lfingers 7.12502
lthumb 22.5435 54.2402
rfemur -6.88549 -2.67455 17.4741
rtibia 43.6758
rfoot 18.9775 4.76294
rtoes -8.66008
lfemur -37.7612 -11.8708 -21.0977
ltibia 34.1443
lfoot -16.8073 3.26428
ltoes 1.93443
425
root 39.114 16.3993 -1.11759 -99.9764 -87.0382 117.472
lowerback -16.3619 0.239016 -5.52058
upperback -6.27022 0.829731 -0.724355
thorax 2.39467 0.315259 2.50098
lowerneck 5.43475 0.126306 -4.1566
upperneck -2.9187 0.058052 4.64833
head -1.87828 -0.0380448 2.21397
rclavicle -9.31182e-015 -2.16675e-014
rhumerus -41.1661 -26.4966 -74.0659
rradius 20.2812
rwrist 21.2856
rhand -15.5135 11.5274
rfingers 7.12502
rthumb 10.6694 -18.1817
lclavicle -9.31182e-015 -2.16675e-014
lhumerus -100.704 53.1337 -11.2541
lradius 12.1385
lwrist -91.2167
lhand -3.2273 26.1623
lfingers 7.12502
lthumb 22.4958 54.872
rfemur -8.22062 -3.04811 17.1182
rtibia 46.3643
rfoot 20.7122 4.37642
rtoes -5.99192
lfemur -36.6846 -12.033 -21.5153
ltibia 33.662
lfoot -16.9676 3.76524
ltoes 1.48331
426
root 38.9846 16.4171 -1.09541 -104.6 -86.7447 121.997
lowerback -16.0313 0.361909 -5.79051
upperback -6.57981 0.978485 -0.687994
thorax 1.86928 0.406336 2.71031
lowerneck 6.27259 0.128527 -3.91446
upperneck -2.97878 0.0405339 4.35266
head -2.04503 -0.0512873 2.0807
rclavicle 9.47333e-015 -4.57205e-015
rhumerus -41.9516 -26.5258 -73.4385
rradius 20.3253
rwrist 21.366
rhand -15.5354 11.4799
rfingers 7.12502
rthumb 10.6484 -18.2303
lclavicle 9.47333e-015 -4.57205e-015
lhumerus -96.185 53.4589 -5.38533
lradius 12.1693
lwrist -88.8907
lhand -3.43818 25.7923
lfingers 7.12502
lthumb 22.2934 54.5264
rfemur -9.7358 -3.42275 16.7727
rtibia 48.9746
rfoot 21.223 3.49833
rtoes -7.18542
lfemur -35.726 -11.9433 -21.9485
ltibia 33.1433
lfoot -16.8772 4.10734
ltoes 0.89081
427
root 38.8536 16.4361 -1.07012 -110.797 -86.4411 128.144
lowerback -16.484 0.471066 -5.53408
upperback -6.09851 1.16332 -0.858169
thorax 2.61717 0.47306 2.43017
lowerneck 5.50848 0.082178 -3.44207
upperneck -3.05772 0.0274762 4.039
head -1.92526 -0.0476807 1.88601
rclavicle -8.10669e-015 4.17448e-015
rhumerus -41.1546 -27.5245 -73.5125
rradius 19.9801
rwrist 22.1871
rhand -15.5891 11.8376
rfingers 7.12502
rthumb 10.5965 -17.8752
lclavicle -8.10669e-015 4.17448e-015
lhumerus -92.8301 55.0224 -1.45678
lradius 12.0964
lwrist -87.2521
lhand -3.6466 25.3504
lfingers 7.12502
lthumb 22.0933 54.1082
rfemur -11.313 -3.73296 16.5134
rtibia 51.4912
rfoot 20.1584 2.24667
rtoes -8.79332
lfemur -34.8246 -11.794 -22.2938
ltibia 32.5924
lfoot -16.6101 4.41371
ltoes 0.311955
428
root 38.7273 16.4538 -1.04874 -115.057 -86.1606 132.29
lowerback -16.151 0.407654 -5.57247
upperback -6.22794 1.04807 -0.699777
thorax 2.30809 0.427076 2.592
lowerneck 5.60431 0.256032 -3.68356
upperneck -2.93964 0.232318 3.92311
head -1.9133 0.0599782 1.8842
rclavicle -1.48964e-014 -1.49089e-015
rhumerus -41.1918 -27.4181 -73.1597
rradius 19.748
rwrist 22.5911
rhand -15.5973 12.0052
rfingers 7.12502
rthumb 10.5886 -17.7081
lclavicle -1.48964e-014 -1.49089e-015
lhumerus -87.9788 55.2166 4.86679
lradius 12.1892
lwrist -83.9964
lhand -3.73142 25.3896
lfingers 7.12502
lthumb 22.0119 54.157
rfemur -12.7818 -4.02738 16.3644
rtibia 53.8862
rfoot 18.5735 0.395629
rtoes -7.59346
lfemur -33.8706 -11.705 -22.6069
ltibia 32.0114
lfoot -16.5718 4.67212
ltoes 0.0668815
429
root 38.6101 16.4676 -1.03529 -116.097 -86.0198 133.171
lowerback -15.7393 0.470757 -5.81609
upperback -6.23444 1.14401 -0.67933
thorax 2.06703 0.487556 2.76063
lowerneck 5.42899 0.211813 -3.41947
upperneck -2.83747 0.188445 3.75711
head -1.84289 0.0405933 1.78134
rclavicle -1.59152e-014 -1.49089e-015
rhumerus -41.254 -27.7309 -72.9437
rradius 19.8138
rwrist 22.5022
rhand -15.5243 11.7015
rfingers 7.12502
rthumb 10.6591 -18.0081
lclavicle -1.59152e-014 -1.49089e-015
lhumerus -83.0782 55.4641 10.7793
lradius 12.2392
lwrist -81.8612
lhand -3.94443 25.0895
lfingers 7.12502
lthumb 21.8073 53.8809
rfemur -14.1856 -4.40175 16.387
rtibia 56.1185
rfoot 16.7253 -1.56365
rtoes -4.66931
lfemur -32.8771 -11.6618 -22.8708
ltibia 31.3954
lfoot -16.9851 4.6831
ltoes 1.06519
430
root 38.4867 16.482 -1.02213 -117.505 -85.8822 134.348
lowerback -15.6009 0.432176 -5.80347
upperback -6.29376 1.07538 -0.636476
thorax 1.93615 0.457618 2.78434
lowerneck 6.25644 0.357609 -3.40779
upperneck -3.09206 0.359045 3.59415
head -2.08141 0.122454 1.72857
rclavicle 2.15247e-014 -2.48978e-014
rhumerus -41.5213 -27.3568 -72.9626
rradius 19.9336
rwrist 22.3613
rhand -15.5959 11.5214
rfingers 7.12502
rthumb 10.5899 -18.1918
lclavicle 2.15247e-014 -2.48978e-014
lhumerus -77.997 54.9601 17.1131
lradius 12.4142
lwrist -78.9524
lhand -4.21263 24.5764
lfingers 7.12502
lthumb 21.5498 53.3975
rfemur -15.5506 -4.70214 16.452
rtibia 58.1756
rfoot 15.2363 -3.25943
rtoes -1.14781
lfemur -31.7803 -11.6231 -23.1265
ltibia 30.7532
lfoot -17.9166 4.77068
ltoes 2.93306
431
root 38.3538 16.4987 -1.00195 -122.623 -85.572 139.286
lowerback -15.0459 0.560876 -5.68457
upperback -6.38855 1.18733 -0.617957
thorax 1.53468 0.525778 2.74449
lowerneck 5.61427 0.388217 -3.21216
upperneck -2.56594 0.410596 3.312
head -1.79036 0.158292 1.59081
rclavicle -6.53194e-015 2.73329e-015
rhumerus -41.537 -27.144 -73.0721
rradius 19.9367
rwrist 22.5654
rhand -16.0246 11.2723
rfingers 7.12502
rthumb 10.1764 -18.4616
lclavicle -6.53194e-015 2.73329e-015
lhumerus -73.3097 54.4719 22.8703
lradius 12.5854
lwrist -76.3683
lhand -4.60569 24.0592
lfingers 7.12502
lthumb 21.1722 52.9231
rfemur -17.0145 -4.64462 16.4842
rtibia 60.002
rfoot 14.3698 -4.65748
rtoes 2.07266
lfemur -30.703 -11.519 -23.3488
ltibia 30.1331
lfoot -17.8312 5.18222
ltoes 3.27066
